<svg width="16" height="16" viewBox="0 0 16 16" fill="none" xmlns="http://www.w3.org/2000/svg">
<path d="M7.99995 7.55556C8.98179 7.55556 9.77772 6.75962 9.77772 5.77778C9.77772 4.79594 8.98179 4 7.99995 4C7.01811 4 6.22217 4.79594 6.22217 5.77778C6.22217 6.75962 7.01811 7.55556 7.99995 7.55556Z" stroke="#0A0A0A" stroke-width="1.5" stroke-linecap="round" stroke-linejoin="round"/>
<path d="M4.80176 11.7778C5.37865 10.5938 6.59376 9.77783 7.99998 9.77783C9.4062 9.77783 10.6213 10.5938 11.1982 11.7778" stroke="#0A0A0A" stroke-width="1.5" stroke-linecap="round" stroke-linejoin="round"/>
<path d="M14 10.4443V12.2221C14 13.2043 13.2045 13.9999 12.2222 13.9999H10.4445" stroke="#0A0A0A" stroke-width="1.5" stroke-linecap="round" stroke-linejoin="round"/>
<path d="M5.55556 13.9999H3.77778C2.79556 13.9999 2 13.2043 2 12.2221V10.4443" stroke="#0A0A0A" stroke-width="1.5" stroke-linecap="round" stroke-linejoin="round"/>
<path d="M2 5.55556V3.77778C2 2.79556 2.79556 2 3.77778 2H5.55556" stroke="#0A0A0A" stroke-width="1.5" stroke-linecap="round" stroke-linejoin="round"/>
<path d="M10.4445 2H12.2222C13.2045 2 14 2.79556 14 3.77778V5.55556" stroke="#0A0A0A" stroke-width="1.5" stroke-linecap="round" stroke-linejoin="round"/>
</svg>
