<svg width="24" height="24" viewBox="0 0 24 24" fill="none" xmlns="http://www.w3.org/2000/svg">
<path d="M19.5 9.5H4.5V16.25C4.5 17.7692 5.73079 19 7.25 19H12.5V14.7735C12.5 13.7781 13.0362 12.8594 13.8971 12.3673C14.7611 11.8734 15.8247 11.8819 16.6805 12.3855L19.5 14.047V9.5Z" fill="#0A0A0A" fill-opacity="0.4"/>
<path d="M7.25 5C5.73079 5 4.5 6.23079 4.5 7.75V9.5H19.5V9.25C19.5 7.73079 18.2692 6.5 16.75 6.5H11.724L11.3457 6.02827C10.8235 5.37825 10.0355 5 9.201 5H7.25Z" fill="#0A0A0A"/>
<path d="M15.2734 21.0002C15.0546 21.0002 14.8369 20.9445 14.6416 20.8327C14.2461 20.6066 14 20.1838 14 19.7287V14.7737C14 14.3186 14.2461 13.8958 14.6416 13.6697C15.0371 13.4436 15.5264 13.447 15.9199 13.6785L20.124 16.156C20.5166 16.387 20.75 16.7966 20.75 17.2512C20.75 17.7058 20.5166 18.1155 20.124 18.3464L15.9199 20.8239C15.7207 20.9411 15.497 21.0002 15.2734 21.0002Z" fill="#0A0A0A"/>
</svg>
