<svg width="24" height="24" viewBox="0 0 24 24" fill="none" xmlns="http://www.w3.org/2000/svg">
<path opacity="0.4" d="M17.997 11.3333H13.1081C12.74 11.3333 12.4414 11.6319 12.4414 12C12.4414 12.3681 12.74 12.6666 13.1081 12.6666H17.997C18.3651 12.6666 18.6636 12.3681 18.6636 12C18.6636 11.6319 18.3651 11.3333 17.997 11.3333Z" fill="#0A0A0A"/>
<path opacity="0.4" d="M13.1081 9.77779H17.997C18.3651 9.77779 18.6636 9.47921 18.6636 9.11112C18.6636 8.74304 18.3651 8.44446 17.997 8.44446H13.1081C12.74 8.44446 12.4414 8.74304 12.4414 9.11112C12.4414 9.47921 12.74 9.77779 13.1081 9.77779Z" fill="#0A0A0A"/>
<path opacity="0.4" d="M16.6636 14.2222H13.1081C12.74 14.2222 12.4414 14.5208 12.4414 14.8889C12.4414 15.257 12.74 15.5556 13.1081 15.5556H16.6636C17.0317 15.5556 17.3303 15.257 17.3303 14.8889C17.3303 14.5208 17.0317 14.2222 16.6636 14.2222Z" fill="#0A0A0A"/>
<path d="M9.97172 9.13805C10.1019 9.26828 10.2721 9.33334 10.4431 9.33334C10.6141 9.33334 10.7843 9.26828 10.9145 9.13805C11.1749 8.87761 11.1749 8.45574 10.9145 8.19539L8.69225 5.97317C8.43181 5.71272 8.00994 5.71272 7.74959 5.97317L5.52736 8.19539C5.26692 8.45583 5.26692 8.8777 5.52736 9.13805C5.78781 9.39841 6.20968 9.3985 6.47003 9.13805L7.55421 8.05388V15.9462L6.47003 14.8621C6.20959 14.6016 5.78772 14.6016 5.52736 14.8621C5.26701 15.1225 5.26692 15.5444 5.52736 15.8047L7.74959 18.0269C7.87981 18.1572 8.04994 18.2222 8.22096 18.2222C8.39199 18.2222 8.56212 18.1572 8.69234 18.0269L10.9146 15.8047C11.175 15.5443 11.175 15.1224 10.9146 14.8621C10.6541 14.6017 10.2323 14.6016 9.9719 14.8621L8.88772 15.9462V8.05379L9.97172 9.13805Z" fill="#0A0A0A"/>
</svg>
