<svg width="17" height="16" viewBox="0 0 17 16" fill="none" xmlns="http://www.w3.org/2000/svg">
<path d="M15 4.5H0V11.25C0 12.7692 1.23079 14 2.75 14H8V9.7735C8 8.7781 8.5362 7.85944 9.3971 7.36728C10.2611 6.87339 11.3247 6.88194 12.1805 7.38545L15 9.047V4.5Z" fill="#0A0A0A" fill-opacity="0.4"/>
<path d="M2.75 0C1.23079 0 0 1.23079 0 2.75V4.5H15V4.25C15 2.73079 13.7692 1.5 12.25 1.5H7.22395L6.84569 1.02827C6.32347 0.37825 5.53552 0 4.701 0H2.75Z" fill="#0A0A0A"/>
<path d="M10.7734 16.0002C10.5546 16.0002 10.3369 15.9445 10.1416 15.8327C9.7461 15.6066 9.5 15.1838 9.5 14.7287V9.77367C9.5 9.31857 9.7461 8.89577 10.1416 8.66967C10.5371 8.44357 11.0264 8.44697 11.4199 8.67847L15.624 11.156C16.0166 11.387 16.25 11.7966 16.25 12.2512C16.25 12.7058 16.0166 13.1155 15.624 13.3464L11.4199 15.8239C11.2207 15.9411 10.997 16.0002 10.7734 16.0002Z" fill="#0A0A0A"/>
</svg>
