<svg width="16" height="16" viewBox="0 0 16 16" fill="none" xmlns="http://www.w3.org/2000/svg">
<path fill-rule="evenodd" clip-rule="evenodd" d="M1.77869 4.22228C1.77869 2.87222 2.87308 1.77783 4.22313 1.77783H11.7787C13.1287 1.77783 14.2231 2.87222 14.2231 4.22228V11.7778C14.2231 13.1279 13.1287 14.2223 11.7787 14.2223H4.22313C2.87308 14.2223 1.77869 13.1279 1.77869 11.7778V4.22228Z" fill="#0A0A0A" fill-opacity="0.4"/>
<path d="M14.2232 11.7777V10.8348L11.7292 8.34093C10.7746 7.38636 9.22725 7.38636 8.27265 8.34093L2.82825 13.7853C3.22382 14.0607 3.70463 14.2221 4.22314 14.2221H11.7787C13.1288 14.2221 14.2232 13.1277 14.2232 11.7777Z" fill="#0A0A0A"/>
<path d="M5.55642 7.55572C6.17011 7.55572 6.66753 7.0583 6.66753 6.44461C6.66753 5.83092 6.17011 5.3335 5.55642 5.3335C4.94273 5.3335 4.44531 5.83092 4.44531 6.44461C4.44531 7.0583 4.94273 7.55572 5.55642 7.55572Z" fill="#0A0A0A"/>
</svg>
