<svg width="477" height="35" viewBox="0 0 477 35" fill="none" xmlns="http://www.w3.org/2000/svg">
<path d="M0.000139952 29.7598V7.03976H4.16014V28.4798L1.88814 26.1438H14.9441V29.7598H0.000139952ZM24.0549 30.1438C22.3482 30.1438 20.8656 29.7811 19.6069 29.0558C18.3696 28.3091 17.3989 27.2638 16.6949 25.9198C16.0122 24.5758 15.6709 23.0078 15.6709 21.2158C15.6709 19.4238 16.0122 17.8664 16.6949 16.5438C17.3989 15.1998 18.3696 14.1544 19.6069 13.4078C20.8442 12.6611 22.2949 12.2878 23.9589 12.2878C25.6016 12.2878 27.0309 12.6504 28.2469 13.3758C29.4629 14.1011 30.4016 15.1464 31.0629 16.5118C31.7456 17.8771 32.0869 19.5198 32.0869 21.4398V22.3678H19.9269C20.0122 23.8611 20.4176 24.9918 21.1429 25.7598C21.8896 26.5064 22.8709 26.8798 24.0869 26.8798C25.0042 26.8798 25.7616 26.6771 26.3589 26.2718C26.9776 25.8451 27.4042 25.2584 27.6389 24.5118L31.8309 24.7678C31.3829 26.4318 30.4656 27.7438 29.0789 28.7038C27.6922 29.6638 26.0176 30.1438 24.0549 30.1438ZM19.9269 19.6158H27.8309C27.7456 18.2291 27.3509 17.2051 26.6469 16.5438C25.9429 15.8611 25.0469 15.5198 23.9589 15.5198C22.8709 15.5198 21.9642 15.8718 21.2389 16.5758C20.5349 17.2798 20.0976 18.2931 19.9269 19.6158ZM40.8031 29.7598C39.0965 29.7598 37.8378 29.3651 37.0271 28.5758C36.2378 27.7864 35.8431 26.5491 35.8431 24.8638V8.67176H39.9391V24.4798C39.9391 25.2691 40.1098 25.8238 40.4511 26.1438C40.7925 26.4424 41.3258 26.5918 42.0511 26.5918H44.4511V29.7598H40.8031ZM33.1551 15.8398V12.6718H44.4511V15.8398H33.1551ZM46.2979 16.5758L47.9619 11.5198H46.0099V7.03976H50.7139V11.0078L48.5699 16.5758H46.2979ZM60.5826 30.1438C58.8973 30.1438 57.4786 29.8984 56.3266 29.4078C55.1746 28.9171 54.2893 28.2344 53.6706 27.3598C53.052 26.4851 52.7 25.4931 52.6146 24.3838L56.8066 24.1918C56.956 25.0878 57.3293 25.7811 57.9266 26.2718C58.524 26.7624 59.4093 27.0078 60.5826 27.0078C61.5426 27.0078 62.2893 26.8584 62.8226 26.5598C63.3773 26.2398 63.6546 25.7491 63.6546 25.0878C63.6546 24.7038 63.5586 24.3838 63.3666 24.1278C63.196 23.8718 62.8333 23.6478 62.2786 23.4558C61.7453 23.2638 60.956 23.0718 59.9106 22.8798C58.1613 22.5811 56.7853 22.2184 55.7826 21.7918C54.78 21.3438 54.0653 20.7891 53.6386 20.1278C53.2333 19.4664 53.0306 18.6451 53.0306 17.6638C53.0306 16.0638 53.6386 14.7731 54.8546 13.7918C56.092 12.7891 57.8946 12.2878 60.2626 12.2878C61.7986 12.2878 63.0893 12.5438 64.1346 13.0558C65.18 13.5464 65.9906 14.2291 66.5666 15.1038C67.164 15.9571 67.548 16.9384 67.7186 18.0478L63.5586 18.2398C63.4733 17.6638 63.2813 17.1624 62.9826 16.7358C62.7053 16.3091 62.332 15.9891 61.8626 15.7758C61.4146 15.5411 60.8706 15.4238 60.2306 15.4238C59.2493 15.4238 58.5133 15.6158 58.0226 15.9998C57.532 16.3838 57.2866 16.8958 57.2866 17.5358C57.2866 17.9838 57.3933 18.3571 57.6066 18.6558C57.8413 18.9544 58.2146 19.1998 58.7266 19.3918C59.2386 19.5624 59.9213 19.7224 60.7746 19.8718C62.5666 20.1491 63.9746 20.5118 64.9986 20.9598C66.044 21.3864 66.7906 21.9411 67.2386 22.6238C67.6866 23.2851 67.9106 24.0851 67.9106 25.0238C67.9106 26.1118 67.6013 27.0398 66.9826 27.8078C66.364 28.5758 65.5 29.1624 64.3906 29.5678C63.3026 29.9518 62.0333 30.1438 60.5826 30.1438ZM84.8994 30.1438C83.1927 30.1438 81.7101 29.7811 80.4514 29.0558C79.2141 28.3091 78.2434 27.2638 77.5394 25.9198C76.8354 24.5758 76.4834 23.0078 76.4834 21.2158C76.4834 19.4238 76.8354 17.8664 77.5394 16.5438C78.2434 15.1998 79.2141 14.1544 80.4514 13.4078C81.7101 12.6611 83.1927 12.2878 84.8994 12.2878C86.3501 12.2878 87.6407 12.5438 88.7714 13.0558C89.9021 13.5678 90.8194 14.3038 91.5234 15.2638C92.2487 16.2024 92.6967 17.3544 92.8674 18.7198L88.6434 18.9438C88.4727 17.8558 88.0461 17.0344 87.3634 16.4798C86.7021 15.9038 85.8807 15.6158 84.8994 15.6158C83.5767 15.6158 82.5527 16.1171 81.8274 17.1198C81.1021 18.1011 80.7394 19.4664 80.7394 21.2158C80.7394 22.9864 81.1021 24.3624 81.8274 25.3438C82.5527 26.3251 83.5767 26.8158 84.8994 26.8158C85.9021 26.8158 86.7341 26.5278 87.3954 25.9518C88.0781 25.3758 88.4941 24.4798 88.6434 23.2638L92.8674 23.4558C92.7181 24.8211 92.2914 26.0051 91.5874 27.0078C90.8834 28.0104 89.9554 28.7891 88.8034 29.3438C87.6727 29.8771 86.3714 30.1438 84.8994 30.1438ZM95.0801 29.7598V12.6718H98.9201L99.0801 17.4078L98.7281 17.3438C98.9841 15.7011 99.4641 14.5171 100.168 13.7918C100.893 13.0451 101.875 12.6718 103.112 12.6718H104.68V16.1918H103.08C102.205 16.1918 101.48 16.3198 100.904 16.5758C100.328 16.8318 99.8908 17.2371 99.5921 17.7918C99.3148 18.3251 99.1761 19.0291 99.1761 19.9038V29.7598H95.0801ZM113.83 30.1438C112.123 30.1438 110.641 29.7811 109.382 29.0558C108.145 28.3091 107.174 27.2638 106.47 25.9198C105.787 24.5758 105.446 23.0078 105.446 21.2158C105.446 19.4238 105.787 17.8664 106.47 16.5438C107.174 15.1998 108.145 14.1544 109.382 13.4078C110.619 12.6611 112.07 12.2878 113.734 12.2878C115.377 12.2878 116.806 12.6504 118.022 13.3758C119.238 14.1011 120.177 15.1464 120.838 16.5118C121.521 17.8771 121.862 19.5198 121.862 21.4398V22.3678H109.702C109.787 23.8611 110.193 24.9918 110.918 25.7598C111.665 26.5064 112.646 26.8798 113.862 26.8798C114.779 26.8798 115.537 26.6771 116.134 26.2718C116.753 25.8451 117.179 25.2584 117.414 24.5118L121.606 24.7678C121.158 26.4318 120.241 27.7438 118.854 28.7038C117.467 29.6638 115.793 30.1438 113.83 30.1438ZM109.702 19.6158H117.606C117.521 18.2291 117.126 17.2051 116.422 16.5438C115.718 15.8611 114.822 15.5198 113.734 15.5198C112.646 15.5198 111.739 15.8718 111.014 16.5758C110.31 17.2798 109.873 18.2931 109.702 19.6158ZM129.504 30.1438C127.733 30.1438 126.293 29.7384 125.184 28.9278C124.096 28.0958 123.552 26.9438 123.552 25.4718C123.552 23.9998 124.011 22.8478 124.928 22.0158C125.845 21.1838 127.243 20.5864 129.12 20.2238L134.784 19.1038C134.784 17.8878 134.507 16.9811 133.952 16.3838C133.397 15.7651 132.587 15.4558 131.52 15.4558C130.517 15.4558 129.728 15.6904 129.152 16.1598C128.597 16.6078 128.224 17.2584 128.032 18.1118L123.84 17.9198C124.181 16.1064 125.013 14.7198 126.336 13.7598C127.659 12.7784 129.387 12.2878 131.52 12.2878C133.952 12.2878 135.787 12.9064 137.024 14.1438C138.261 15.3598 138.88 17.1091 138.88 19.3918V25.5998C138.88 26.0478 138.955 26.3571 139.104 26.5278C139.275 26.6984 139.52 26.7838 139.84 26.7838H140.384V29.7598C140.256 29.8024 140.043 29.8344 139.744 29.8558C139.467 29.8771 139.189 29.8878 138.912 29.8878C138.187 29.8878 137.547 29.7811 136.992 29.5678C136.459 29.3331 136.032 28.9384 135.712 28.3838C135.413 27.8078 135.264 27.0291 135.264 26.0478L135.616 26.3038C135.445 27.0504 135.072 27.7224 134.496 28.3198C133.941 28.8958 133.237 29.3438 132.384 29.6638C131.531 29.9838 130.571 30.1438 129.504 30.1438ZM130.336 27.1678C131.253 27.1678 132.043 26.9864 132.704 26.6238C133.365 26.2611 133.877 25.7598 134.24 25.1198C134.603 24.4798 134.784 23.7224 134.784 22.8478V21.8878L130.368 22.7838C129.472 22.9758 128.821 23.2638 128.416 23.6478C128.011 24.0104 127.808 24.4904 127.808 25.0878C127.808 25.7491 128.021 26.2611 128.448 26.6238C128.896 26.9864 129.525 27.1678 130.336 27.1678ZM148.247 29.7598C146.54 29.7598 145.282 29.3651 144.471 28.5758C143.682 27.7864 143.287 26.5491 143.287 24.8638V8.67176H147.383V24.4798C147.383 25.2691 147.554 25.8238 147.895 26.1438C148.236 26.4424 148.77 26.5918 149.495 26.5918H151.895V29.7598H148.247ZM140.599 15.8398V12.6718H151.895V15.8398H140.599ZM161.399 30.1438C159.692 30.1438 158.209 29.7811 156.951 29.0558C155.713 28.3091 154.743 27.2638 154.039 25.9198C153.356 24.5758 153.015 23.0078 153.015 21.2158C153.015 19.4238 153.356 17.8664 154.039 16.5438C154.743 15.1998 155.713 14.1544 156.951 13.4078C158.188 12.6611 159.639 12.2878 161.303 12.2878C162.945 12.2878 164.375 12.6504 165.591 13.3758C166.807 14.1011 167.745 15.1464 168.407 16.5118C169.089 17.8771 169.431 19.5198 169.431 21.4398V22.3678H157.271C157.356 23.8611 157.761 24.9918 158.487 25.7598C159.233 26.5064 160.215 26.8798 161.431 26.8798C162.348 26.8798 163.105 26.6771 163.703 26.2718C164.321 25.8451 164.748 25.2584 164.983 24.5118L169.175 24.7678C168.727 26.4318 167.809 27.7438 166.423 28.7038C165.036 29.6638 163.361 30.1438 161.399 30.1438ZM157.271 19.6158H165.175C165.089 18.2291 164.695 17.2051 163.991 16.5438C163.287 15.8611 162.391 15.5198 161.303 15.5198C160.215 15.5198 159.308 15.8718 158.583 16.5758C157.879 17.2798 157.441 18.2931 157.271 19.6158ZM177.432 29.7598L185.624 7.03976H190.712L198.904 29.7598H194.552L192.664 24.3838H183.672L181.784 29.7598H177.432ZM184.888 20.8318H191.448L188.184 11.2318L184.888 20.8318ZM201.425 29.7598V7.03976H205.585V29.7598H201.425ZM223.837 30.1438C222.13 30.1438 220.648 29.7811 219.389 29.0558C218.152 28.3091 217.181 27.2638 216.477 25.9198C215.773 24.5758 215.421 23.0078 215.421 21.2158C215.421 19.4238 215.773 17.8664 216.477 16.5438C217.181 15.1998 218.152 14.1544 219.389 13.4078C220.648 12.6611 222.13 12.2878 223.837 12.2878C225.288 12.2878 226.578 12.5438 227.709 13.0558C228.84 13.5678 229.757 14.3038 230.461 15.2638C231.186 16.2024 231.634 17.3544 231.805 18.7198L227.581 18.9438C227.41 17.8558 226.984 17.0344 226.301 16.4798C225.64 15.9038 224.818 15.6158 223.837 15.6158C222.514 15.6158 221.49 16.1171 220.765 17.1198C220.04 18.1011 219.677 19.4664 219.677 21.2158C219.677 22.9864 220.04 24.3624 220.765 25.3438C221.49 26.3251 222.514 26.8158 223.837 26.8158C224.84 26.8158 225.672 26.5278 226.333 25.9518C227.016 25.3758 227.432 24.4798 227.581 23.2638L231.805 23.4558C231.656 24.8211 231.229 26.0051 230.525 27.0078C229.821 28.0104 228.893 28.7891 227.741 29.3438C226.61 29.8771 225.309 30.1438 223.837 30.1438ZM234.018 29.7598V12.6718H237.858L238.018 17.4078L237.666 17.3438C237.922 15.7011 238.402 14.5171 239.106 13.7918C239.831 13.0451 240.812 12.6718 242.05 12.6718H243.618V16.1918H242.018C241.143 16.1918 240.418 16.3198 239.842 16.5758C239.266 16.8318 238.828 17.2371 238.53 17.7918C238.252 18.3251 238.114 19.0291 238.114 19.9038V29.7598H234.018ZM252.767 30.1438C251.061 30.1438 249.578 29.7811 248.319 29.0558C247.082 28.3091 246.111 27.2638 245.407 25.9198C244.725 24.5758 244.383 23.0078 244.383 21.2158C244.383 19.4238 244.725 17.8664 245.407 16.5438C246.111 15.1998 247.082 14.1544 248.319 13.4078C249.557 12.6611 251.007 12.2878 252.671 12.2878C254.314 12.2878 255.743 12.6504 256.959 13.3758C258.175 14.1011 259.114 15.1464 259.775 16.5118C260.458 17.8771 260.799 19.5198 260.799 21.4398V22.3678H248.639C248.725 23.8611 249.13 24.9918 249.855 25.7598C250.602 26.5064 251.583 26.8798 252.799 26.8798C253.717 26.8798 254.474 26.6771 255.071 26.2718C255.69 25.8451 256.117 25.2584 256.351 24.5118L260.543 24.7678C260.095 26.4318 259.178 27.7438 257.791 28.7038C256.405 29.6638 254.73 30.1438 252.767 30.1438ZM248.639 19.6158H256.543C256.458 18.2291 256.063 17.2051 255.359 16.5438C254.655 15.8611 253.759 15.5198 252.671 15.5198C251.583 15.5198 250.677 15.8718 249.951 16.5758C249.247 17.2798 248.81 18.2931 248.639 19.6158ZM268.442 30.1438C266.671 30.1438 265.231 29.7384 264.122 28.9278C263.034 28.0958 262.49 26.9438 262.49 25.4718C262.49 23.9998 262.948 22.8478 263.866 22.0158C264.783 21.1838 266.18 20.5864 268.058 20.2238L273.722 19.1038C273.722 17.8878 273.444 16.9811 272.89 16.3838C272.335 15.7651 271.524 15.4558 270.458 15.4558C269.455 15.4558 268.666 15.6904 268.09 16.1598C267.535 16.6078 267.162 17.2584 266.97 18.1118L262.778 17.9198C263.119 16.1064 263.951 14.7198 265.274 13.7598C266.596 12.7784 268.324 12.2878 270.458 12.2878C272.89 12.2878 274.724 12.9064 275.962 14.1438C277.199 15.3598 277.818 17.1091 277.818 19.3918V25.5998C277.818 26.0478 277.892 26.3571 278.042 26.5278C278.212 26.6984 278.458 26.7838 278.778 26.7838H279.322V29.7598C279.194 29.8024 278.98 29.8344 278.682 29.8558C278.404 29.8771 278.127 29.8878 277.85 29.8878C277.124 29.8878 276.484 29.7811 275.93 29.5678C275.396 29.3331 274.97 28.9384 274.65 28.3838C274.351 27.8078 274.202 27.0291 274.202 26.0478L274.554 26.3038C274.383 27.0504 274.01 27.7224 273.434 28.3198C272.879 28.8958 272.175 29.3438 271.322 29.6638C270.468 29.9838 269.508 30.1438 268.442 30.1438ZM269.274 27.1678C270.191 27.1678 270.98 26.9864 271.642 26.6238C272.303 26.2611 272.815 25.7598 273.178 25.1198C273.54 24.4798 273.722 23.7224 273.722 22.8478V21.8878L269.306 22.7838C268.41 22.9758 267.759 23.2638 267.354 23.6478C266.948 24.0104 266.746 24.4904 266.746 25.0878C266.746 25.7491 266.959 26.2611 267.386 26.6238C267.834 26.9864 268.463 27.1678 269.274 27.1678ZM287.184 29.7598C285.478 29.7598 284.219 29.3651 283.408 28.5758C282.619 27.7864 282.224 26.5491 282.224 24.8638V8.67176H286.32V24.4798C286.32 25.2691 286.491 25.8238 286.832 26.1438C287.174 26.4424 287.707 26.5918 288.432 26.5918H290.832V29.7598H287.184ZM279.536 15.8398V12.6718H290.832V15.8398H279.536ZM293.255 29.7598V12.6718H297.351V29.7598H293.255ZM293.191 10.3998V6.75176H297.447V10.3998H293.191ZM305.753 29.7598L299.513 12.6718H303.833L308.185 25.6318L312.505 12.6718H316.857L310.585 29.7598H305.753ZM325.549 30.1438C323.842 30.1438 322.359 29.7811 321.101 29.0558C319.863 28.3091 318.893 27.2638 318.189 25.9198C317.506 24.5758 317.165 23.0078 317.165 21.2158C317.165 19.4238 317.506 17.8664 318.189 16.5438C318.893 15.1998 319.863 14.1544 321.101 13.4078C322.338 12.6611 323.789 12.2878 325.453 12.2878C327.095 12.2878 328.525 12.6504 329.741 13.3758C330.957 14.1011 331.895 15.1464 332.557 16.5118C333.239 17.8771 333.581 19.5198 333.581 21.4398V22.3678H321.421C321.506 23.8611 321.911 24.9918 322.637 25.7598C323.383 26.5064 324.365 26.8798 325.581 26.8798C326.498 26.8798 327.255 26.6771 327.853 26.2718C328.471 25.8451 328.898 25.2584 329.133 24.5118L333.325 24.7678C332.877 26.4318 331.959 27.7438 330.573 28.7038C329.186 29.6638 327.511 30.1438 325.549 30.1438ZM321.421 19.6158H329.325C329.239 18.2291 328.845 17.2051 328.141 16.5438C327.437 15.8611 326.541 15.5198 325.453 15.5198C324.365 15.5198 323.458 15.8718 322.733 16.5758C322.029 17.2798 321.591 18.2931 321.421 19.6158ZM343.145 30.1438C341.46 30.1438 340.041 29.8984 338.889 29.4078C337.737 28.9171 336.852 28.2344 336.233 27.3598C335.614 26.4851 335.262 25.4931 335.177 24.3838L339.369 24.1918C339.518 25.0878 339.892 25.7811 340.489 26.2718C341.086 26.7624 341.972 27.0078 343.145 27.0078C344.105 27.0078 344.852 26.8584 345.385 26.5598C345.94 26.2398 346.217 25.7491 346.217 25.0878C346.217 24.7038 346.121 24.3838 345.929 24.1278C345.758 23.8718 345.396 23.6478 344.841 23.4558C344.308 23.2638 343.518 23.0718 342.473 22.8798C340.724 22.5811 339.348 22.2184 338.345 21.7918C337.342 21.3438 336.628 20.7891 336.201 20.1278C335.796 19.4664 335.593 18.6451 335.593 17.6638C335.593 16.0638 336.201 14.7731 337.417 13.7918C338.654 12.7891 340.457 12.2878 342.825 12.2878C344.361 12.2878 345.652 12.5438 346.697 13.0558C347.742 13.5464 348.553 14.2291 349.129 15.1038C349.726 15.9571 350.11 16.9384 350.281 18.0478L346.121 18.2398C346.036 17.6638 345.844 17.1624 345.545 16.7358C345.268 16.3091 344.894 15.9891 344.425 15.7758C343.977 15.5411 343.433 15.4238 342.793 15.4238C341.812 15.4238 341.076 15.6158 340.585 15.9998C340.094 16.3838 339.849 16.8958 339.849 17.5358C339.849 17.9838 339.956 18.3571 340.169 18.6558C340.404 18.9544 340.777 19.1998 341.289 19.3918C341.801 19.5624 342.484 19.7224 343.337 19.8718C345.129 20.1491 346.537 20.5118 347.561 20.9598C348.606 21.3864 349.353 21.9411 349.801 22.6238C350.249 23.2851 350.473 24.0851 350.473 25.0238C350.473 26.1118 350.164 27.0398 349.545 27.8078C348.926 28.5758 348.062 29.1624 346.953 29.5678C345.865 29.9518 344.596 30.1438 343.145 30.1438ZM352.571 34.8158L354.235 29.7598H352.283V25.2798H356.987V29.2478L354.843 34.8158H352.571ZM371.862 29.7598V10.6558H364.95V7.03976H382.934V10.6558H376.022V29.7598H371.862ZM385.093 29.7598V7.03976H389.189V16.5758H388.677C388.847 15.5944 389.189 14.7944 389.701 14.1758C390.213 13.5358 390.842 13.0664 391.589 12.7678C392.335 12.4478 393.157 12.2878 394.053 12.2878C395.311 12.2878 396.367 12.5651 397.221 13.1198C398.095 13.6531 398.746 14.4104 399.173 15.3918C399.621 16.3731 399.845 17.5038 399.845 18.7838V29.7598H395.749V19.7758C395.749 18.3891 395.514 17.3544 395.045 16.6718C394.575 15.9678 393.839 15.6158 392.837 15.6158C391.727 15.6158 390.842 15.9784 390.181 16.7038C389.519 17.4291 389.189 18.4851 389.189 19.8718V29.7598H385.093ZM410.561 30.1438C408.854 30.1438 407.372 29.7811 406.113 29.0558C404.876 28.3091 403.905 27.2638 403.201 25.9198C402.518 24.5758 402.177 23.0078 402.177 21.2158C402.177 19.4238 402.518 17.8664 403.201 16.5438C403.905 15.1998 404.876 14.1544 406.113 13.4078C407.35 12.6611 408.801 12.2878 410.465 12.2878C412.108 12.2878 413.537 12.6504 414.753 13.3758C415.969 14.1011 416.908 15.1464 417.569 16.5118C418.252 17.8771 418.593 19.5198 418.593 21.4398V22.3678H406.433C406.518 23.8611 406.924 24.9918 407.649 25.7598C408.396 26.5064 409.377 26.8798 410.593 26.8798C411.51 26.8798 412.268 26.6771 412.865 26.2718C413.484 25.8451 413.91 25.2584 414.145 24.5118L418.337 24.7678C417.889 26.4318 416.972 27.7438 415.585 28.7038C414.198 29.6638 412.524 30.1438 410.561 30.1438ZM406.433 19.6158H414.337C414.252 18.2291 413.857 17.2051 413.153 16.5438C412.449 15.8611 411.553 15.5198 410.465 15.5198C409.377 15.5198 408.47 15.8718 407.745 16.5758C407.041 17.2798 406.604 18.2931 406.433 19.6158ZM408.737 10.8158L410.721 6.33576H414.817L411.937 10.8158H408.737ZM428.606 30.1438C426.92 30.1438 425.448 29.7811 424.19 29.0558C422.931 28.3091 421.95 27.2638 421.246 25.9198C420.542 24.5758 420.19 23.0078 420.19 21.2158C420.19 19.4024 420.542 17.8344 421.246 16.5118C421.95 15.1678 422.931 14.1331 424.19 13.4078C425.448 12.6611 426.92 12.2878 428.606 12.2878C430.291 12.2878 431.763 12.6611 433.022 13.4078C434.28 14.1331 435.251 15.1678 435.934 16.5118C436.638 17.8344 436.99 19.4024 436.99 21.2158C436.99 23.0078 436.638 24.5758 435.934 25.9198C435.251 27.2638 434.28 28.3091 433.022 29.0558C431.763 29.7811 430.291 30.1438 428.606 30.1438ZM428.606 26.8158C429.928 26.8158 430.952 26.3251 431.678 25.3438C432.403 24.3624 432.766 22.9864 432.766 21.2158C432.766 19.4664 432.403 18.1011 431.678 17.1198C430.952 16.1171 429.928 15.6158 428.606 15.6158C427.283 15.6158 426.259 16.1171 425.534 17.1198C424.808 18.1011 424.446 19.4664 424.446 21.2158C424.446 22.9864 424.808 24.3624 425.534 25.3438C426.259 26.3251 427.283 26.8158 428.606 26.8158ZM444.278 31.9998H476.278V-0.000234604H444.278V31.9998Z" fill="#0A0A0A"/>
</svg>
