<svg width="24" height="24" viewBox="0 0 24 24" fill="none" xmlns="http://www.w3.org/2000/svg">
<path d="M20.4873 16.5381L18.5928 15.9072L17.9615 14.0127C17.8594 13.707 17.5728 13.5 17.2501 13.5C16.9274 13.5 16.6407 13.707 16.5387 14.0127L15.9074 15.9072L14.0129 16.5381C13.7067 16.6406 13.5002 16.9268 13.5002 17.25C13.5002 17.5732 13.7067 17.8594 14.0129 17.9619L15.9074 18.5928L16.5387 20.4873C16.6408 20.793 16.9274 21 17.2501 21C17.5728 21 17.8595 20.793 17.9615 20.4873L18.5928 18.5928L20.4873 17.9619C20.7935 17.8594 21 17.5732 21 17.25C21 16.9268 20.7935 16.6406 20.4873 16.5381Z" fill="#0A0A0A"/>
<path d="M4.00002 12C4.00002 7.58179 7.58181 4 12 4C16.4182 4 20 7.58179 20 12C20 12.8145 19.8783 13.6006 19.652 14.3411L19.3846 13.5385L19.3843 13.5375C19.0782 12.621 18.2195 12 17.2501 12C16.2811 12 15.4219 12.6208 15.1158 13.5379L14.7216 14.7211L13.539 15.1149L13.5368 15.1157C12.6202 15.4225 12.0002 16.2806 12.0002 17.25C12.0002 18.2194 12.6202 19.0775 13.5368 19.3843L14.3408 19.6521C13.6004 19.8783 12.8144 20 12 20C11.496 20 11.0013 19.9526 10.5225 19.8619C9.63844 19.6947 8.91986 19.4026 8.39182 19.1345C7.98601 19.3421 7.4872 19.5366 6.96902 19.6876C6.26319 19.8932 5.44913 20.0391 4.70928 19.9989C4.41385 19.9828 4.15547 19.7946 4.04964 19.5183C3.94381 19.242 4.01031 18.9293 4.2194 18.72C4.55932 18.3797 4.85824 17.8052 5.01741 17.1997C5.09518 16.9039 5.13238 16.6268 5.13177 16.3972C5.13116 16.1672 5.09295 16.0343 5.06488 15.977C4.39246 14.8068 4.00002 13.4506 4.00002 12Z" fill="#0A0A0A" fill-opacity="0.4"/>
</svg>
