<svg width="36" height="36" viewBox="0 0 36 36" fill="none" xmlns="http://www.w3.org/2000/svg">
<rect width="36" height="36" rx="12" fill="#0A0A0A"/>
<path d="M21.2613 20.4933C13.7804 23.5277 10.0592 17.6387 11.3315 15.3052C10.0885 17.5053 10.5082 21.3868 13.7989 23.9963C16.7683 26.351 22.5446 26.2902 26.4894 25.0457C27.057 24.8666 27.1745 24.1471 26.7249 23.7571C25.5635 22.7497 24.1928 21.5621 23.19 20.7339C22.6527 20.2902 21.9071 20.2314 21.2613 20.4933Z" fill="white"/>
<path d="M14.7386 15.5068C22.2196 12.4724 25.9407 18.3614 24.6684 20.6949C25.9114 18.4948 25.4918 14.6133 22.2011 12.0038C19.2317 9.64908 13.4553 9.70988 9.51066 10.9544C8.94304 11.1334 8.82548 11.853 9.2751 12.243C10.4365 13.2504 11.8071 14.438 12.81 15.2662C13.3473 15.7099 14.0929 15.7687 14.7386 15.5068Z" fill="white"/>
</svg>
