<svg width="22" height="22" viewBox="0 0 22 22" fill="none" xmlns="http://www.w3.org/2000/svg">
<path d="M11 14.1109C11.368 14.1109 11.6667 13.8087 11.6667 13.4442V11.6664H13.4445C13.8125 11.6664 14.1111 11.3642 14.1111 10.9998C14.1111 10.6353 13.8125 10.3331 13.4445 10.3331H11.6667V8.55534C11.6667 8.19089 11.368 7.88867 11 7.88867C10.632 7.88867 10.3334 8.19089 10.3334 8.55534V10.3331H8.55558C8.18758 10.3331 7.88892 10.6353 7.88892 10.9998C7.88892 11.3642 8.18758 11.6664 8.55558 11.6664H10.3334V13.4442C10.3334 13.8087 10.632 14.1109 11 14.1109Z" fill="#020308"/>
<path opacity="0.4" d="M9.22231 19.0001C9.05173 19.0001 8.88115 18.935 8.75093 18.8048L6.97315 17.027C6.78258 16.8365 6.72533 16.5496 6.82862 16.3005C6.93191 16.0513 7.17493 15.889 7.44453 15.889H14.7778C15.3907 15.889 15.8889 15.3908 15.8889 14.7779V7.22233C15.8889 6.85424 16.1875 6.55566 16.5556 6.55566C16.9237 6.55566 17.2223 6.85424 17.2223 7.22233V14.7779C17.2223 16.126 16.1259 17.2223 14.7778 17.2223H9.05386L9.6936 17.8621C9.95404 18.1225 9.95404 18.5444 9.6936 18.8047C9.56338 18.935 9.39289 19.0001 9.22231 19.0001Z" fill="#020308"/>
<path opacity="0.4" d="M5.4445 15.4443C5.07641 15.4443 4.77783 15.1458 4.77783 14.7777V7.22211C4.77783 5.87402 5.87419 4.77766 7.22228 4.77766H12.9463L12.3065 4.1379C12.0461 3.87745 12.0461 3.45566 12.3065 3.1953C12.567 2.93494 12.9889 2.93486 13.2492 3.1953L15.027 4.97307C15.2176 5.16365 15.2748 5.45049 15.1715 5.69964C15.0682 5.9488 14.8252 6.1111 14.5556 6.1111H7.22228C6.60939 6.1111 6.11117 6.60932 6.11117 7.22221V14.7778C6.11117 15.1458 5.81259 15.4443 5.4445 15.4443Z" fill="#020308"/>
</svg>
