<svg width="24" height="24" viewBox="0 0 24 24" fill="none" xmlns="http://www.w3.org/2000/svg">
<path fill-rule="evenodd" clip-rule="evenodd" d="M7.75 6.5C7.05921 6.5 6.5 7.05921 6.5 7.75V9.75C6.5 10.1642 6.16421 10.5 5.75 10.5C5.33579 10.5 5 10.1642 5 9.75V7.75C5 6.23079 6.23079 5 7.75 5H9.75C10.1642 5 10.5 5.33579 10.5 5.75C10.5 6.16421 10.1642 6.5 9.75 6.5H7.75Z" fill="#0A0A0A" fill-opacity="0.4"/>
<path fill-rule="evenodd" clip-rule="evenodd" d="M13.5 5.75C13.5 5.33579 13.8358 5 14.25 5H16.25C17.7692 5 19 6.23079 19 7.75V9.75C19 10.1642 18.6642 10.5 18.25 10.5C17.8358 10.5 17.5 10.1642 17.5 9.75V7.75C17.5 7.05921 16.9408 6.5 16.25 6.5H14.25C13.8358 6.5 13.5 6.16421 13.5 5.75Z" fill="#0A0A0A" fill-opacity="0.4"/>
<path fill-rule="evenodd" clip-rule="evenodd" d="M5.75 13.5C6.16421 13.5 6.5 13.8358 6.5 14.25V16.25C6.5 16.9408 7.05921 17.5 7.75 17.5H9.75C10.1642 17.5 10.5 17.8358 10.5 18.25C10.5 18.6642 10.1642 19 9.75 19H7.75C6.23079 19 5 17.7692 5 16.25V14.25C5 13.8358 5.33579 13.5 5.75 13.5Z" fill="#0A0A0A" fill-opacity="0.4"/>
<path fill-rule="evenodd" clip-rule="evenodd" d="M12 8C9.79077 8 8 9.7909 8 12C8 14.2091 9.79077 16 12 16C12.8335 16 13.6075 15.745 14.2482 15.3089L16.9697 18.0303C17.2626 18.3232 17.7374 18.3232 18.0303 18.0303C18.3232 17.7374 18.3232 17.2626 18.0303 16.9697L15.3089 14.2482C15.7451 13.6075 16 12.8335 16 12C16 9.7909 14.2092 8 12 8ZM9.5 12C9.5 10.6193 10.6192 9.5 12 9.5C13.3808 9.5 14.5 10.6193 14.5 12C14.5 13.3807 13.3808 14.5 12 14.5C10.6192 14.5 9.5 13.3807 9.5 12Z" fill="#0A0A0A"/>
</svg>
