<svg width="16" height="16" viewBox="0 0 16 16" fill="none" xmlns="http://www.w3.org/2000/svg">
<g clip-path="url(#clip0_8154_3396)">
<path fill-rule="evenodd" clip-rule="evenodd" d="M13.7782 9.1115C13.7782 8.74329 13.4797 8.44482 13.1115 8.44482C12.7434 8.44482 12.4449 8.74329 12.4449 9.1115V10.6671H10.8893C10.5211 10.6671 10.2227 10.9655 10.2227 11.3337C10.2227 11.7019 10.5211 12.0004 10.8893 12.0004H12.4449V13.5559C12.4449 13.9241 12.7434 14.2226 13.1115 14.2226C13.4797 14.2226 13.7782 13.9241 13.7782 13.5559V12.0004H15.3338C15.7019 12.0004 16.0004 11.7019 16.0004 11.3337C16.0004 10.9655 15.7019 10.6671 15.3338 10.6671H13.7782V9.1115Z" fill="#0A0A0A"/>
<path d="M10.1982 9.45618C9.19087 8.42139 7.78299 7.77734 6.2223 7.77734C4.05424 7.77734 2.18071 9.01938 1.26649 10.8276C0.71597 11.9164 1.31387 13.1972 2.41251 13.5787C3.38419 13.9161 4.68275 14.2227 6.2223 14.2227C7.76186 14.2227 9.06065 13.916 10.0323 13.5786C10.222 13.5126 10.3968 13.4198 10.5534 13.3058C9.60856 13.1461 8.88891 12.324 8.88891 11.3338C8.88891 10.4719 9.43407 9.73742 10.1982 9.45618Z" fill="#0A0A0A" fill-opacity="0.4"/>
<path fill-rule="evenodd" clip-rule="evenodd" d="M3.77734 4.22276C3.77734 2.87237 4.87186 1.77832 6.22179 1.77832C7.57172 1.77832 8.66623 2.87237 8.66623 4.22276C8.66623 5.57316 7.57172 6.66721 6.22179 6.66721C4.87186 6.66721 3.77734 5.57316 3.77734 4.22276Z" fill="#0A0A0A" fill-opacity="0.4"/>
<path fill-rule="evenodd" clip-rule="evenodd" d="M9.37793 6.30039C9.75206 6.53293 10.1937 6.66721 10.6666 6.66721C12.0165 6.66721 13.111 5.57316 13.111 4.22276C13.111 2.87237 12.0165 1.77832 10.6666 1.77832C10.1937 1.77832 9.75206 1.9126 9.37793 2.14513C9.77109 2.74114 9.99989 3.45515 9.99989 4.22276C9.99989 4.99037 9.77109 5.70439 9.37793 6.30039Z" fill="#0A0A0A" fill-opacity="0.4"/>
</g>
<defs>
<clipPath id="clip0_8154_3396">
<rect width="16" height="16" fill="white"/>
</clipPath>
</defs>
</svg>
