<svg width="16" height="16" viewBox="0 0 16 16" fill="none" xmlns="http://www.w3.org/2000/svg">
<path d="M8.22211 6.44434H3.77767C3.04129 6.44434 2.44434 7.04129 2.44434 7.77767V12.2221C2.44434 12.9585 3.04129 13.5554 3.77767 13.5554H8.22211C8.95849 13.5554 9.55545 12.9585 9.55545 12.2221V7.77767C9.55545 7.04129 8.95849 6.44434 8.22211 6.44434Z" stroke="#0A0A0A" stroke-width="1.5" stroke-linecap="round" stroke-linejoin="round"/>
<path d="M8.22211 6.44434H3.77767C3.04129 6.44434 2.44434 7.04129 2.44434 7.77767V12.2221C2.44434 12.9585 3.04129 13.5554 3.77767 13.5554H8.22211C8.95849 13.5554 9.55545 12.9585 9.55545 12.2221V7.77767C9.55545 7.04129 8.95849 6.44434 8.22211 6.44434Z" stroke="#0A0A0A" stroke-width="1.5" stroke-linecap="round" stroke-linejoin="round"/>
<path d="M7.51065 13.5552C7.28363 11.1895 5.31385 9.33301 2.88878 9.33301C2.73651 9.33301 2.59287 9.36359 2.44434 9.37772V12.2219C2.44434 12.9583 3.04131 13.5552 3.77767 13.5552H7.51065Z" fill="#0A0A0A"/>
<path d="M7.11106 9.77778C7.60198 9.77778 7.99995 9.37981 7.99995 8.88889C7.99995 8.39797 7.60198 8 7.11106 8C6.62014 8 6.22217 8.39797 6.22217 8.88889C6.22217 9.37981 6.62014 9.77778 7.11106 9.77778Z" fill="#0A0A0A"/>
<path d="M2.44434 4.22211C2.44434 3.23989 3.23989 2.44434 4.22211 2.44434" stroke="#0A0A0A" stroke-width="1.5" stroke-linecap="round" stroke-linejoin="round"/>
<path d="M11.7776 2.44434C12.7598 2.44434 13.5554 3.23989 13.5554 4.22211" stroke="#0A0A0A" stroke-width="1.5" stroke-linecap="round" stroke-linejoin="round"/>
<path d="M13.5554 11.7778C13.5554 12.7601 12.7598 13.5556 11.7776 13.5556" stroke="#0A0A0A" stroke-width="1.5" stroke-linecap="round" stroke-linejoin="round"/>
<path d="M6.88867 2.44434H9.11089" stroke="#0A0A0A" stroke-width="1.5" stroke-linecap="round" stroke-linejoin="round"/>
<path d="M13.5554 6.88867V9.11089" stroke="#0A0A0A" stroke-width="1.5" stroke-linecap="round" stroke-linejoin="round"/>
</svg>
