<svg width="16" height="16" viewBox="0 0 16 16" fill="none" xmlns="http://www.w3.org/2000/svg">
<path d="M10.507 8.52702C9.74057 8.18827 8.89266 8 7.99994 8C5.45921 8 3.28046 9.52507 2.31565 11.7044C1.82361 12.8165 2.43928 14.0726 3.56669 14.4278C4.70664 14.787 6.21579 15.1111 7.99994 15.1111C8.76509 15.1111 9.47968 15.0516 10.1362 14.9551L9.97461 14.4701L8.92146 14.1194C8.10673 13.8467 7.55566 13.0839 7.55566 12.2222C7.55566 11.3699 8.11566 10.5948 8.92341 10.3244L9.97461 9.97431L10.3249 8.92311C10.3717 8.78298 10.4331 8.65012 10.507 8.52702Z" fill="#0A0A0A" fill-opacity="0.4"/>
<path d="M15.0998 11.5892L13.4158 11.0284L12.8546 9.34441C12.7639 9.07267 12.5091 8.88867 12.2223 8.88867C11.9354 8.88867 11.6806 9.07267 11.5899 9.34441L11.0288 11.0284L9.34477 11.5892C9.07259 11.6803 8.88904 11.9347 8.88904 12.222C8.88904 12.5093 9.07259 12.7637 9.34477 12.8548L11.0288 13.4156L11.5899 15.0996C11.6807 15.3713 11.9354 15.5553 12.2223 15.5553C12.5091 15.5553 12.764 15.3713 12.8546 15.0996L13.4158 13.4156L15.0998 12.8548C15.372 12.7637 15.5555 12.5093 15.5555 12.222C15.5555 11.9347 15.372 11.6803 15.0998 11.5892Z" fill="#0A0A0A"/>
<path d="M7.99997 6.66694C9.59571 6.66694 10.8889 5.37355 10.8889 3.77805C10.8889 2.18254 9.59571 0.88916 7.99997 0.88916C6.40426 0.88916 5.11108 2.18254 5.11108 3.77805C5.11108 5.37355 6.40426 6.66694 7.99997 6.66694Z" fill="#0A0A0A" fill-opacity="0.4"/>
</svg>
