<svg width="16" height="16" viewBox="0 0 16 16" fill="none" xmlns="http://www.w3.org/2000/svg">
<path fill-rule="evenodd" clip-rule="evenodd" d="M11.111 6.21973C13.4424 6.21973 15.3329 8.11012 15.3329 10.4416C15.3329 11.1983 15.1308 11.9058 14.7842 12.5181C14.7822 12.5283 14.7779 12.5539 14.7778 12.5992C14.7777 12.6811 14.7913 12.7908 14.8241 12.9159C14.893 13.1782 15.0191 13.4074 15.138 13.5265C15.3238 13.7126 15.3828 13.9906 15.2887 14.2362C15.1946 14.4818 14.9648 14.649 14.7022 14.6632C14.2936 14.6853 13.8586 14.605 13.4944 14.4987C13.281 14.4365 13.0698 14.359 12.881 14.2728C12.6192 14.3943 12.2866 14.5163 11.8916 14.5915C11.6388 14.6395 11.377 14.665 11.1103 14.665C8.77801 14.665 6.88843 12.7745 6.88843 10.4431C6.88843 8.14334 8.81015 6.21973 11.111 6.21973Z" fill="#0A0A0A"/>
<path d="M0.666626 7.33345C0.666626 7.14834 0.675028 6.9652 0.691471 6.78438C0.968617 3.73694 3.53009 1.35107 6.65038 1.35107C9.12165 1.35107 11.2424 2.84768 12.1554 4.98423C11.8171 4.91987 11.468 4.88618 11.111 4.88618C11.0786 4.88618 11.0464 4.88696 11.0143 4.88851C7.9905 4.93994 5.55508 7.40711 5.55508 10.4429C5.55508 11.4912 5.84544 12.4717 6.35015 13.3084C5.50681 13.2668 4.70947 13.0507 3.99346 12.6955C3.69983 12.8403 3.35114 12.9736 2.99247 13.078C2.46793 13.2307 1.85736 13.3409 1.29757 13.3108C1.03474 13.2967 0.804848 13.1292 0.710782 12.8833C0.616717 12.6376 0.676089 12.3594 0.862326 12.1734C1.09279 11.9432 1.30367 11.5434 1.41668 11.1134C1.47156 10.9045 1.49699 10.7117 1.49657 10.5552C1.49627 10.4451 1.48331 10.374 1.47216 10.334C0.959915 9.45204 0.666626 8.42711 0.666626 7.33345Z" fill="#0A0A0A" fill-opacity="0.4"/>
</svg>
