<svg width="16" height="16" viewBox="0 0 16 16" fill="none" xmlns="http://www.w3.org/2000/svg">
<path d="M3.55554 13.1115L8.7431 7.92399C9.43732 7.22976 10.5627 7.22976 11.2569 7.92399L14.4444 11.1115" stroke="#0A0A0A" stroke-width="1.5" stroke-linecap="round" stroke-linejoin="round"/>
<path d="M5.11111 7.55572C5.72444 7.55572 6.22222 7.05794 6.22222 6.44461C6.22222 5.83127 5.72444 5.3335 5.11111 5.3335C4.49778 5.3335 4 5.83127 4 6.44461C4 7.05794 4.49778 7.55572 5.11111 7.55572Z" fill="#0A0A0A"/>
<path d="M12.6666 1.11133V5.55577" stroke="#0A0A0A" stroke-width="1.5" stroke-linecap="round" stroke-linejoin="round"/>
<path d="M7.81591 2.88916H3.33332C2.3511 2.88916 1.55554 3.68472 1.55554 4.66694V11.3336C1.55554 12.3158 2.3511 13.1114 3.33332 13.1114H12.6667C13.6489 13.1114 14.4444 12.3158 14.4444 11.3336V7.53483" stroke="#0A0A0A" stroke-width="1.5" stroke-linecap="round" stroke-linejoin="round"/>
<path d="M14.8889 3.3335H10.4445" stroke="#0A0A0A" stroke-width="1.5" stroke-linecap="round" stroke-linejoin="round"/>
</svg>
