<svg width="72" height="85" viewBox="0 0 72 85" fill="none" xmlns="http://www.w3.org/2000/svg">
<g filter="url(#filter0_dddddd_8154_3407)">
<rect x="12" y="1" width="48" height="48" rx="20" fill="white"/>
<g opacity="0.5">
<path d="M39.8305 15.0426C38.6415 14.5849 37.3499 14.334 35.9997 14.334C30.1087 14.334 25.333 19.1097 25.333 25.0007C25.333 30.8916 30.1087 35.6673 35.9997 35.6673C41.8906 35.6673 46.6663 30.8916 46.6663 25.0007C46.6663 24.171 46.5717 23.3634 46.3923 22.5882C45.9174 23.6187 44.8754 24.334 43.6663 24.334C42.0095 24.334 40.6663 22.9908 40.6663 21.334V21.0007H40.333C38.6762 21.0007 37.333 19.6575 37.333 18.0007C37.333 16.5151 38.4129 15.2817 39.8305 15.0426Z" fill="#0A0A0A" fill-opacity="0.4"/>
<path fill-rule="evenodd" clip-rule="evenodd" d="M32.9971 23.334C32.9971 21.6766 34.3403 20.334 35.9971 20.334C37.6539 20.334 38.9971 21.6766 38.9971 23.334C38.9971 24.9914 37.6539 26.334 35.9971 26.334C34.3403 26.334 32.9971 24.9914 32.9971 23.334Z" fill="#0A0A0A"/>
<path d="M42.2769 33.6257C40.5157 34.9097 38.3462 35.6673 35.9998 35.6673C33.6534 35.6673 31.4839 34.9097 29.7227 33.6256L29.8669 33.0812C30.5711 30.352 33.0484 28.334 35.9998 28.334C38.9512 28.334 41.4284 30.3519 42.1326 33.0811L42.2769 33.6257Z" fill="#0A0A0A"/>
<path fill-rule="evenodd" clip-rule="evenodd" d="M44.6663 14.6675C44.6663 14.1152 44.2186 13.6675 43.6663 13.6675C43.1141 13.6675 42.6663 14.1152 42.6663 14.6675V17.0008H40.333C39.7807 17.0008 39.333 17.4485 39.333 18.0008C39.333 18.5531 39.7807 19.0008 40.333 19.0008H42.6663V21.3341C42.6663 21.8864 43.1141 22.3341 43.6663 22.3341C44.2186 22.3341 44.6663 21.8864 44.6663 21.3341V19.0008H46.9997C47.5519 19.0008 47.9997 18.5531 47.9997 18.0008C47.9997 17.4485 47.5519 17.0008 46.9997 17.0008H44.6663V14.6675Z" fill="#0A0A0A"/>
</g>
</g>
<defs>
<filter id="filter0_dddddd_8154_3407" x="0" y="0" width="72" height="85" filterUnits="userSpaceOnUse" color-interpolation-filters="sRGB">
<feFlood flood-opacity="0" result="BackgroundImageFix"/>
<feColorMatrix in="SourceAlpha" type="matrix" values="0 0 0 0 0 0 0 0 0 0 0 0 0 0 0 0 0 0 127 0" result="hardAlpha"/>
<feMorphology radius="12" operator="erode" in="SourceAlpha" result="effect1_dropShadow_8154_3407"/>
<feOffset dy="24"/>
<feGaussianBlur stdDeviation="12"/>
<feComposite in2="hardAlpha" operator="out"/>
<feColorMatrix type="matrix" values="0 0 0 0 0.0235294 0 0 0 0 0.337255 0 0 0 0 0.52549 0 0 0 0.04 0"/>
<feBlend mode="normal" in2="BackgroundImageFix" result="effect1_dropShadow_8154_3407"/>
<feColorMatrix in="SourceAlpha" type="matrix" values="0 0 0 0 0 0 0 0 0 0 0 0 0 0 0 0 0 0 127 0" result="hardAlpha"/>
<feMorphology radius="6" operator="erode" in="SourceAlpha" result="effect2_dropShadow_8154_3407"/>
<feOffset dy="6"/>
<feGaussianBlur stdDeviation="6"/>
<feComposite in2="hardAlpha" operator="out"/>
<feColorMatrix type="matrix" values="0 0 0 0 0.0235294 0 0 0 0 0.337255 0 0 0 0 0.52549 0 0 0 0.02 0"/>
<feBlend mode="normal" in2="effect1_dropShadow_8154_3407" result="effect2_dropShadow_8154_3407"/>
<feColorMatrix in="SourceAlpha" type="matrix" values="0 0 0 0 0 0 0 0 0 0 0 0 0 0 0 0 0 0 127 0" result="hardAlpha"/>
<feMorphology radius="3" operator="erode" in="SourceAlpha" result="effect3_dropShadow_8154_3407"/>
<feOffset dy="6"/>
<feGaussianBlur stdDeviation="4"/>
<feComposite in2="hardAlpha" operator="out"/>
<feColorMatrix type="matrix" values="0 0 0 0 0.00392157 0 0 0 0 0.133333 0 0 0 0 0.211765 0 0 0 0.01 0"/>
<feBlend mode="normal" in2="effect2_dropShadow_8154_3407" result="effect3_dropShadow_8154_3407"/>
<feColorMatrix in="SourceAlpha" type="matrix" values="0 0 0 0 0 0 0 0 0 0 0 0 0 0 0 0 0 0 127 0" result="hardAlpha"/>
<feMorphology radius="1.5" operator="erode" in="SourceAlpha" result="effect4_dropShadow_8154_3407"/>
<feOffset dy="3"/>
<feGaussianBlur stdDeviation="1.5"/>
<feComposite in2="hardAlpha" operator="out"/>
<feColorMatrix type="matrix" values="0 0 0 0 0.00392157 0 0 0 0 0.133333 0 0 0 0 0.211765 0 0 0 0.06 0"/>
<feBlend mode="normal" in2="effect3_dropShadow_8154_3407" result="effect4_dropShadow_8154_3407"/>
<feColorMatrix in="SourceAlpha" type="matrix" values="0 0 0 0 0 0 0 0 0 0 0 0 0 0 0 0 0 0 127 0" result="hardAlpha"/>
<feMorphology radius="0.5" operator="erode" in="SourceAlpha" result="effect5_dropShadow_8154_3407"/>
<feOffset dy="1"/>
<feGaussianBlur stdDeviation="0.5"/>
<feComposite in2="hardAlpha" operator="out"/>
<feColorMatrix type="matrix" values="0 0 0 0 0.00392157 0 0 0 0 0.133333 0 0 0 0 0.211765 0 0 0 0.04 0"/>
<feBlend mode="normal" in2="effect4_dropShadow_8154_3407" result="effect5_dropShadow_8154_3407"/>
<feColorMatrix in="SourceAlpha" type="matrix" values="0 0 0 0 0 0 0 0 0 0 0 0 0 0 0 0 0 0 127 0" result="hardAlpha"/>
<feMorphology radius="1" operator="dilate" in="SourceAlpha" result="effect6_dropShadow_8154_3407"/>
<feOffset/>
<feComposite in2="hardAlpha" operator="out"/>
<feColorMatrix type="matrix" values="0 0 0 0 0.0235294 0 0 0 0 0.337255 0 0 0 0 0.52549 0 0 0 0.04 0"/>
<feBlend mode="normal" in2="effect5_dropShadow_8154_3407" result="effect6_dropShadow_8154_3407"/>
<feBlend mode="normal" in="SourceGraphic" in2="effect6_dropShadow_8154_3407" result="shape"/>
</filter>
</defs>
</svg>
