<svg width="24" height="24" viewBox="0 0 24 24" fill="none" xmlns="http://www.w3.org/2000/svg">
<g opacity="0.5">
<path d="M13.7823 2.6665H6.33464C4.30954 2.6665 2.66797 4.30809 2.66797 6.33317V17.6665C2.66797 19.6916 4.30954 21.3332 6.33464 21.3332H17.668C19.6931 21.3332 21.3347 19.6916 21.3347 17.6665V10.219C20.7847 10.8986 19.9437 11.3332 19.0013 11.3332C17.3445 11.3332 16.0013 9.99002 16.0013 8.33317V7.99984H15.668C14.0112 7.99984 12.668 6.65669 12.668 4.99984C12.668 4.05741 13.1026 3.21649 13.7823 2.6665Z" fill="#0A0A0A" fill-opacity="0.4"/>
<path d="M21.3346 17.6665V16.2522L17.5936 12.5114C16.1618 11.0795 13.8407 11.0795 12.4088 12.5114L4.24219 20.678C4.83555 21.091 5.55675 21.3332 6.33453 21.3332H17.6679C19.693 21.3332 21.3346 19.6916 21.3346 17.6665Z" fill="#0A0A0A"/>
<path d="M8.33464 11.3333C9.25517 11.3333 10.0013 10.5872 10.0013 9.66667C10.0013 8.74613 9.25517 8 8.33464 8C7.4141 8 6.66797 8.74613 6.66797 9.66667C6.66797 10.5872 7.4141 11.3333 8.33464 11.3333Z" fill="#0A0A0A"/>
<path fill-rule="evenodd" clip-rule="evenodd" d="M20.0013 1.6665C20.0013 1.11422 19.5536 0.666504 19.0013 0.666504C18.449 0.666504 18.0013 1.11422 18.0013 1.6665V3.99984H15.668C15.1157 3.99984 14.668 4.44756 14.668 4.99984C14.668 5.55212 15.1157 5.99984 15.668 5.99984H18.0013V8.33317C18.0013 8.88545 18.449 9.33317 19.0013 9.33317C19.5536 9.33317 20.0013 8.88545 20.0013 8.33317V5.99984H22.3346C22.8869 5.99984 23.3346 5.55212 23.3346 4.99984C23.3346 4.44756 22.8869 3.99984 22.3346 3.99984H20.0013V1.6665Z" fill="#0A0A0A"/>
</g>
</svg>
