<svg width="24" height="24" viewBox="0 0 24 24" fill="none" xmlns="http://www.w3.org/2000/svg">
<path fill-rule="evenodd" clip-rule="evenodd" d="M5 6.75C5 5.78379 5.78379 5 6.75 5H9.25C10.2162 5 11 5.78379 11 6.75V9.25C11 10.2162 10.2162 11 9.25 11H6.75C5.78379 11 5 10.2162 5 9.25V6.75Z" fill="#0A0A0A"/>
<path fill-rule="evenodd" clip-rule="evenodd" d="M4.75 16C4.75 14.2048 6.20479 12.75 8 12.75C9.79521 12.75 11.25 14.2048 11.25 16C11.25 17.7952 9.79521 19.25 8 19.25C6.20479 19.25 4.75 17.7952 4.75 16Z" fill="#0A0A0A" fill-opacity="0.4"/>
<path fill-rule="evenodd" clip-rule="evenodd" d="M16.75 13.5C16.75 13.0858 16.4142 12.75 16 12.75C15.5858 12.75 15.25 13.0858 15.25 13.5V15.25H13.5C13.0858 15.25 12.75 15.5858 12.75 16C12.75 16.4142 13.0858 16.75 13.5 16.75H15.25V18.5C15.25 18.9142 15.5858 19.25 16 19.25C16.4142 19.25 16.75 18.9142 16.75 18.5V16.75H18.5C18.9142 16.75 19.25 16.4142 19.25 16C19.25 15.5858 18.9142 15.25 18.5 15.25H16.75V13.5Z" fill="#0A0A0A"/>
<path fill-rule="evenodd" clip-rule="evenodd" d="M17.0817 5.20157L19.3475 9.12514C19.827 9.95678 19.2287 11.0002 18.265 11.0002H13.734C12.7703 11.0002 12.1717 9.95722 12.6512 9.12558L14.8992 5.23282C14.9046 5.2223 14.9103 5.21188 14.9163 5.20157C15.3968 4.36821 16.601 4.3685 17.0817 5.20157Z" fill="#0A0A0A" fill-opacity="0.4"/>
</svg>
