<svg width="16" height="16" viewBox="0 0 16 16" fill="none" xmlns="http://www.w3.org/2000/svg">
<g clip-path="url(#clip0_8154_3388)">
<path fill-rule="evenodd" clip-rule="evenodd" d="M3.33266 4.62672L12.666 4.62646C12.8428 4.62646 13.0124 4.6967 13.1374 4.82173C13.2625 4.94675 13.3327 5.11632 13.3327 5.29313V14.4444C13.3327 14.8126 13.0342 15.1111 12.666 15.1111H3.33268C2.9645 15.1111 2.66602 14.8126 2.66602 14.4444V5.29339C2.66602 4.92521 2.96448 4.62673 3.33266 4.62672Z" fill="#0A0A0A" fill-opacity="0.4"/>
<path fill-rule="evenodd" clip-rule="evenodd" d="M2.49762 1.67387C2.77432 1.18888 3.29026 0.888672 3.8491 0.888672H12.1487C12.7067 0.888672 13.224 1.18822 13.501 1.67387L15.0161 4.33678C15.1224 4.5236 15.1321 4.75019 15.0422 4.94541C14.5164 6.08657 13.3663 6.88867 12.0189 6.88867C11.2576 6.88867 10.564 6.62905 10.0092 6.20291C9.45464 6.62901 8.76139 6.88867 7.99933 6.88867C7.23709 6.88867 6.54336 6.62841 5.98867 6.2021C5.43399 6.62841 4.74025 6.88867 3.97801 6.88867C2.6296 6.88867 1.48042 6.08646 0.954727 4.94541C0.864737 4.75009 0.874499 4.52335 0.98094 4.33648L2.49762 1.67387Z" fill="#0A0A0A"/>
<path d="M6.22168 14.2219V11.1108C6.22168 10.1293 7.01794 9.33301 7.99946 9.33301C8.98097 9.33301 9.77724 10.1293 9.77724 11.1108V14.2219H6.22168Z" fill="#0A0A0A"/>
<path fill-rule="evenodd" clip-rule="evenodd" d="M0.888672 14.444C0.888672 14.0758 1.18715 13.7773 1.55534 13.7773H14.4442C14.8124 13.7773 15.1109 14.0758 15.1109 14.444C15.1109 14.8122 14.8124 15.1107 14.4442 15.1107H1.55534C1.18715 15.1107 0.888672 14.8122 0.888672 14.444Z" fill="#0A0A0A"/>
</g>
<defs>
<clipPath id="clip0_8154_3388">
<rect width="16" height="16" fill="white"/>
</clipPath>
</defs>
</svg>
