<svg width="24" height="24" viewBox="0 0 24 24" fill="none" xmlns="http://www.w3.org/2000/svg">
<path opacity="0.4" d="M12.0005 19.6867C11.5234 19.6867 11.0464 19.5637 10.6211 19.3171L6.3706 16.8523C5.5254 16.3621 5 15.4504 5 14.4734V9.52708C5 8.54998 5.5254 7.63838 6.3706 7.14818L10.6206 4.68338C11.4712 4.19018 12.5293 4.19018 13.3799 4.68338L17.6304 7.14818C18.4756 7.63838 19.001 8.55008 19.001 9.52708V14.4734C19.001 15.4505 18.4756 16.3621 17.6304 16.8523L13.3804 19.3171C12.9546 19.5637 12.4776 19.6867 12.0005 19.6867Z" fill="#0A0A0A"/>
<path d="M12 12.7502C11.8701 12.7502 11.7402 12.7165 11.6235 12.6491L7.87349 10.4743C7.51559 10.2663 7.39349 9.8073 7.60099 9.4489C7.80899 9.09 8.268 8.9704 8.6264 9.1764L11.9999 11.1329L15.3734 9.1764C15.7313 8.9703 16.1903 9.09 16.3988 9.4489C16.6063 9.8073 16.4842 10.2663 16.1263 10.4743L12.3763 12.6491C12.2596 12.7165 12.1299 12.7502 12 12.7502Z" fill="#0A0A0A"/>
<path d="M12 17.1099C11.5859 17.1099 11.25 16.774 11.25 16.3599V12C11.25 11.5859 11.5859 11.25 12 11.25C12.4141 11.25 12.75 11.5859 12.75 12V16.3599C12.75 16.774 12.4141 17.1099 12 17.1099Z" fill="#0A0A0A"/>
</svg>
