<svg width="20" height="20" viewBox="0 0 20 20" fill="none" xmlns="http://www.w3.org/2000/svg">
<rect width="20" height="20" rx="6" fill="#0A0A0A"/>
<path d="M12.1742 11.6624C7.18684 13.6853 4.706 9.7593 5.55425 8.20361C4.72553 9.67034 5.00538 12.258 7.19918 13.9977C9.17877 15.5675 13.0297 15.527 15.6596 14.6973C16.038 14.578 16.1164 14.0982 15.8166 13.8382C15.0423 13.1667 14.1285 12.3749 13.46 11.8228C13.1018 11.527 12.6047 11.4878 12.1742 11.6624Z" fill="white"/>
<path d="M7.8258 8.33802C12.8132 6.31511 15.294 10.2411 14.4458 11.7968C15.2744 10.3301 14.9947 7.7424 12.8008 6.00272C10.8212 4.43288 6.97026 4.47342 4.34044 5.30309C3.96203 5.42246 3.88365 5.90219 4.1834 6.16219C4.95765 6.83375 5.87146 7.62553 6.54002 8.17761C6.89824 8.47343 7.39529 8.51264 7.8258 8.33802Z" fill="white"/>
</svg>
